<svg width="40" height="21" viewBox="0 0 40 21" fill="none" xmlns="http://www.w3.org/2000/svg">
<path opacity="0.9" d="M16.2386 1.14744C16.3348 1.29808 16.479 1.41347 16.5623 1.41347C16.6489 1.41347 16.713 1.45834 16.713 1.51924C16.713 1.57693 16.6168 1.62501 16.4982 1.62501C16.3155 1.62501 16.2835 1.69552 16.2835 2.09937C16.2835 2.53847 16.3059 2.57693 16.5784 2.60578C16.7707 2.62821 16.886 2.70834 16.9085 2.84616C16.9309 2.96154 17.0431 3.13142 17.1585 3.22757C17.5014 3.50321 17.3091 3.75962 16.7643 3.75962C16.3572 3.75962 16.3123 3.78526 16.3572 3.96795C16.3893 4.09616 16.5175 4.18911 16.6873 4.20834C16.9085 4.23398 16.9822 4.31411 17.0495 4.61539C17.0976 4.81731 17.1104 5.09936 17.0816 5.23078C17.0367 5.4327 16.9534 5.47116 16.5463 5.47116C16.0014 5.47116 15.9277 5.60898 16.3636 5.81731C16.7162 5.98718 16.7995 6.31731 16.5335 6.50642C16.4277 6.58334 16.3828 6.64744 16.4373 6.64744C16.6937 6.65065 22.8091 6.98718 25.2034 7.13141C29.0944 7.36539 36.9309 7.91667 37.1969 7.98077C37.4854 8.04808 37.5816 8.3109 37.386 8.50962C37.2707 8.62821 37.0623 8.65706 36.6136 8.6218C36.0527 8.57693 36.0719 8.58654 36.854 8.73398C37.9341 8.9359 38.2194 9.0577 38.1713 9.30129C38.12 9.55129 37.7835 9.53205 34.6617 9.08013C33.2194 8.8718 31.5143 8.67629 30.8668 8.64423L29.6905 8.58654L31.2931 8.78526C32.6841 8.95834 36.6713 9.60898 37.761 9.84295C38.0399 9.90064 38.136 9.97757 38.136 10.1378C38.136 10.4103 38.0944 10.4071 35.0367 9.88462C33.6264 9.64103 31.5559 9.34616 30.4405 9.22436C28.1745 8.98077 21.7963 8.57052 20.5527 8.58654L19.7514 8.59936L20.3925 8.69231C21.3412 8.83334 29.0399 9.6859 33.3828 10.1314C36.3123 10.4327 37.2771 10.5673 37.604 10.7276C38.0752 10.9519 38.4886 11.4263 38.3412 11.5705C38.2322 11.6795 33.7546 11.2788 25.9501 10.4615C22.4341 10.093 20.3284 9.91667 20.0175 9.96154L19.5367 10.0321L20.1264 10.1058C20.4501 10.1474 23.7707 10.4712 27.5014 10.8269C31.2322 11.1827 34.9149 11.5449 35.6809 11.6282C36.4502 11.7147 37.3604 11.7821 37.7226 11.7821C38.4053 11.7821 38.9566 12.016 38.5976 12.1538C38.5046 12.1891 35.8828 11.9776 32.7707 11.6827C24.8925 10.9327 22.8668 10.8333 28.4085 11.4647C30.0014 11.6474 31.7258 11.8622 32.2578 11.9423C32.7867 12.0256 34.4502 12.1955 35.9469 12.3205C39.9662 12.6571 39.8476 12.6378 39.886 12.9808C39.9277 13.3526 39.7418 13.4006 38.6937 13.2981C38.011 13.2308 37.8444 13.2436 37.7675 13.3782C37.6873 13.5192 37.5591 13.5096 36.7354 13.3109C35.4598 13.0032 35.4854 13.0064 29.9053 12.5897C21.7578 11.984 20.9021 11.9808 27.3412 12.5865C32.8572 13.1058 37.7418 13.6667 37.9021 13.8045C37.9726 13.8654 38.245 13.9263 38.511 13.9455C38.9822 13.9776 38.9918 13.9872 38.9918 14.3526V14.7276L38.0014 14.7051L37.0143 14.6827L36.9437 15.1154C36.9053 15.3494 36.8091 15.5737 36.7354 15.6026C36.6585 15.6314 34.6296 15.4808 32.2354 15.2692C26.7931 14.7885 21.5816 14.3846 19.6969 14.2981C18.9053 14.2628 18.0367 14.2051 17.7739 14.1731C17.4117 14.1282 17.3219 14.1442 17.4117 14.2372C17.4822 14.3109 19.5719 14.5481 22.6489 14.8301C31.9598 15.6891 37.9213 16.2949 38.0527 16.3974C38.1232 16.4519 38.1713 16.7019 38.1585 16.9455C38.1425 17.3077 38.0944 17.4006 37.9117 17.4263C37.7899 17.4455 33.1649 17.0449 27.6489 16.5385C22.1328 16.0321 17.3636 15.6154 17.0591 15.609C16.6841 15.6026 16.4277 15.6603 16.2514 15.7917C15.9598 16.0128 15.7226 16.6026 15.7386 17.0609C15.745 17.2308 15.6585 17.4712 15.5463 17.5962C15.4341 17.7212 15.2899 17.9744 15.2258 18.1667C15.12 18.4776 15.1296 18.5128 15.3219 18.5128C15.4405 18.5128 15.5623 18.5833 15.5944 18.6731C15.6873 18.9199 15.4149 19.1795 15.1393 19.109C14.9437 19.0577 14.8828 19.1122 14.7739 19.4327C14.6521 19.7981 14.6232 19.8141 14.2386 19.7628C13.9085 19.7179 13.8219 19.7468 13.7803 19.9135C13.713 20.1699 13.2995 20.1859 13.2034 19.9359C13.1649 19.8333 13.2066 19.7147 13.3155 19.6378C13.4694 19.5256 13.4021 19.4615 12.7707 19.1314C12.3764 18.9231 11.8059 18.7212 11.5143 18.6827C11.2162 18.6442 10.8957 18.5897 10.7867 18.5577C10.5848 18.5 10.5463 18.1891 10.7226 18.016C10.8059 17.9327 10.7386 17.8654 10.4918 17.7821C10.2995 17.7179 10.0527 17.6635 9.94053 17.6635C9.75463 17.6635 9.70015 17.5577 9.74182 17.2692C9.75143 17.1987 9.55592 17.0929 9.29951 17.0288C8.3572 16.8013 8.30271 16.7692 8.26425 16.4359C8.24502 16.266 8.12963 16.0513 8.00463 15.9615C6.26104 14.6859 5.5463 14.266 5.00143 14.1987C4.39246 14.1218 4.00784 13.8462 4.11681 13.5609C4.17771 13.4006 3.69695 12.9615 3.46297 12.9615C3.40528 12.9615 3.16489 12.7917 2.94053 12.5897C2.13925 11.875 0.443737 10.609 0.289891 10.609C-0.0498529 10.609 0.152073 10.2692 0.748227 9.83654C1.23861 9.48077 1.37643 9.32052 1.37002 9.11218C1.36041 8.86859 1.39246 8.84616 1.74502 8.86539C2.0431 8.88141 2.22579 8.80449 2.55912 8.52244C4.03989 7.25642 8.28989 4.64424 12.4373 2.44872C13.1745 2.0577 13.8444 1.66347 13.9181 1.57693C13.9918 1.49039 14.1937 1.41667 14.3668 1.41667C14.5591 1.41667 14.7739 1.32052 14.9149 1.16988C15.2739 0.794879 15.9982 0.782058 16.2386 1.14744V1.14744ZM14.2578 2.15706C14.1232 2.2436 14.1232 2.26603 14.2643 2.3109C14.6264 2.42629 15.5367 2.48398 15.5367 2.38783C15.5367 2.3109 15.3348 2.25001 14.4662 2.06731C14.4373 2.0609 14.3444 2.10257 14.2578 2.15706V2.15706ZM12.7034 2.88142C12.3828 3.03847 12.1168 3.20513 12.1168 3.25321C12.1168 3.30129 12.2835 3.33975 12.4854 3.33975C12.7835 3.33975 12.8604 3.29488 12.886 3.09937C12.9085 2.92308 12.9982 2.84937 13.213 2.82693C13.3732 2.8109 13.4822 2.75001 13.4501 2.69872C13.3668 2.5577 13.3668 2.5577 12.7034 2.88142ZM11.261 3.71795C11.261 3.7436 11.3572 3.76603 11.4758 3.76603C11.5944 3.76603 11.6905 3.69231 11.6905 3.59937C11.6905 3.46796 11.6489 3.45834 11.4758 3.55129C11.3572 3.61539 11.261 3.69231 11.261 3.71795ZM10.4053 4.15065C10.4053 4.17308 10.5078 4.19231 10.6232 4.19231C10.7418 4.19231 10.8123 4.14424 10.7771 4.08654C10.7194 3.99039 10.4053 4.04488 10.4053 4.15065V4.15065ZM14.0399 5.48077C14.3604 5.52565 14.8219 5.5577 15.0559 5.55449L15.4822 5.54808L15.0559 5.47436C14.8219 5.4327 14.3604 5.40065 14.0399 5.40065H13.4501L14.0399 5.48077ZM6.51425 6.35577C5.37964 7.05129 4.09758 7.92308 4.09758 8C4.09758 8.15385 4.51105 8 4.55592 7.83013C4.59117 7.69552 4.73861 7.60257 4.99502 7.5577C5.20976 7.51924 5.37964 7.42308 5.37964 7.33975C5.37964 7.06731 5.7963 6.96795 7.18733 6.90385C8.49182 6.84295 8.58156 6.85257 8.65528 7.04167C8.76425 7.33334 8.91169 7.40385 9.39246 7.39423L9.81874 7.38462L9.45976 7.28206C9.25463 7.22436 9.07835 7.09616 9.04951 6.98398C9.01105 6.84295 8.85079 6.76283 8.49822 6.71154C8.21938 6.66988 7.94053 6.58654 7.86361 6.52244C7.68092 6.375 7.70335 5.91667 7.89566 5.84295C7.9822 5.8109 8.02707 5.73077 7.99182 5.67308C7.90207 5.52565 7.7322 5.60577 6.51425 6.35577V6.35577ZM8.59759 5.83975C8.6713 5.91347 11.0463 6.19872 12.713 6.33654C15.2899 6.54808 14.6585 6.38462 11.7931 6.09295C8.83156 5.79488 8.53028 5.77244 8.59759 5.83975V5.83975ZM14.7066 6.50642C14.8059 6.53206 15.0046 6.53526 15.136 6.51282C15.2675 6.49039 15.1841 6.46795 14.9469 6.46475C14.713 6.46154 14.604 6.48077 14.7066 6.50642V6.50642ZM10.5912 7.47436C10.7835 7.4968 11.0944 7.4968 11.2867 7.47436C11.479 7.45193 11.3251 7.4327 10.9405 7.4327C10.5527 7.4327 10.3989 7.45193 10.5912 7.47436ZM12.4341 7.61539C12.8732 7.65706 13.5271 7.68911 13.8764 7.6859L14.5175 7.67949L13.7675 7.61539C13.3508 7.58013 12.713 7.54808 12.3251 7.54488L11.6296 7.53847L12.4341 7.61539ZM14.9758 7.79488C15.0527 7.82372 15.1905 7.82372 15.2963 7.79488C15.4021 7.76603 15.3444 7.74039 15.1617 7.74039C14.979 7.74359 14.8989 7.76603 14.9758 7.79488ZM28.8732 8.54488C28.9502 8.57372 29.088 8.57372 29.1937 8.54488C29.2995 8.51283 29.2418 8.49039 29.0591 8.49039C28.8764 8.49039 28.7963 8.51283 28.8732 8.54488ZM19.1425 8.54488C19.2194 8.57372 19.3572 8.57372 19.463 8.54488C19.5687 8.51283 19.511 8.49039 19.3284 8.49039C19.1489 8.49039 19.0687 8.51283 19.1425 8.54488ZM2.88925 8.83654C2.70015 8.97757 2.70335 8.98398 2.91489 9.05129C3.03989 9.08975 3.229 9.05449 3.3572 8.96475C3.57194 8.81731 3.57195 8.8077 3.38284 8.75641C3.27707 8.72757 3.16169 8.70193 3.13284 8.69872C3.104 8.69552 2.99502 8.75641 2.88925 8.83654V8.83654ZM16.2835 8.89423C16.4341 8.98077 17.1585 9.05449 17.4053 9.00641C17.6136 8.96475 16.9662 8.81411 16.5495 8.8077C16.2643 8.80449 16.1745 8.83013 16.2835 8.89423V8.89423ZM5.49822 9.47436C5.57194 9.54808 7.31553 9.8109 11.2162 10.3333C13.2258 10.6026 14.8989 10.8205 14.9277 10.8205C14.9566 10.8205 14.9566 10.7308 14.9277 10.6122C14.8957 10.4872 14.761 10.391 14.5912 10.3718C14.3989 10.3494 14.3123 10.2788 14.3219 10.1538C14.3316 10.0481 14.2963 9.96795 14.2418 9.96795C14.1905 9.96795 13.1681 9.89423 11.9822 9.80129C10.7963 9.71154 8.97258 9.59616 7.94694 9.55129C6.9213 9.50321 5.93733 9.45834 5.76425 9.44872C5.59438 9.43911 5.47258 9.45193 5.49822 9.47436ZM1.40207 9.875L0.748227 10.3173L1.00463 10.5096C1.23861 10.6859 1.26425 10.6859 1.29951 10.5192C1.36361 10.2083 1.61361 10.0962 2.11681 10.1538C2.57515 10.2083 2.58797 10.2019 2.56553 9.89744C2.55271 9.69552 2.46938 9.56411 2.33156 9.51924C2.21297 9.48077 2.104 9.44552 2.08476 9.43911C2.06874 9.4359 1.76746 9.62821 1.40207 9.875V9.875ZM16.9566 9.60257C16.9918 9.63782 17.0848 9.64103 17.1585 9.61218C17.245 9.57693 17.2226 9.55449 17.0944 9.54808C16.9886 9.54488 16.9245 9.57052 16.9566 9.60257V9.60257ZM24.5431 10.9968C24.6425 11.0224 24.8412 11.0256 24.9694 11.0032C25.1008 10.9808 25.0175 10.9583 24.7835 10.9551C24.5463 10.9519 24.4405 10.9712 24.5431 10.9968V10.9968ZM8.94053 10.9936C8.97579 11.0288 9.06874 11.0321 9.14246 11.0032C9.22899 10.9712 9.20656 10.9455 9.07835 10.9391C8.97259 10.9327 8.90528 10.9583 8.94053 10.9936V10.9936ZM1.94694 11.1923C2.20335 11.3814 2.36361 11.4263 2.53348 11.3622C2.7931 11.2628 2.95976 11.2821 8.45656 11.9968C12.7963 12.5641 12.9694 12.5801 12.9694 12.4359C12.9694 12.3365 8.53348 11.7019 5.1104 11.3077C1.19053 10.8558 1.50143 10.8654 1.94694 11.1923V11.1923ZM9.62963 11.109C9.70656 11.1378 9.84438 11.1378 9.95015 11.109C10.0559 11.0801 9.99822 11.0545 9.81553 11.0545C9.63605 11.0577 9.55271 11.0801 9.62963 11.109ZM10.4309 11.2115C10.5367 11.2404 10.6969 11.2404 10.8059 11.2115C10.9085 11.1859 10.8219 11.1635 10.62 11.1635C10.4149 11.1635 10.3284 11.1859 10.4309 11.2115ZM11.7931 11.4103C12.7034 11.5673 13.0367 11.5962 12.9373 11.5C12.854 11.4199 11.8572 11.2756 11.3668 11.2724C11.1617 11.2724 11.3572 11.3333 11.7931 11.4103V11.4103ZM13.3219 11.6346C13.3572 11.6699 13.4501 11.6731 13.5239 11.6442C13.6104 11.6122 13.588 11.5865 13.4598 11.5801C13.354 11.5737 13.2899 11.5994 13.3219 11.6346V11.6346ZM14.0912 11.7788C14.5719 11.9038 14.9149 11.9038 14.8412 11.7821C14.8059 11.7244 14.5527 11.6795 14.2739 11.6859C13.8251 11.6955 13.8059 11.7051 14.0912 11.7788V11.7788ZM16.9566 12.2756C16.9918 12.3109 17.0848 12.3141 17.1585 12.2853C17.245 12.25 17.2226 12.2276 17.0944 12.2212C16.9886 12.2147 16.9245 12.2404 16.9566 12.2756V12.2756ZM17.7258 12.3974C17.9085 12.4263 18.1008 12.4904 18.1745 12.5481C18.245 12.6026 19.2546 12.718 20.4181 12.8013C24.5143 13.093 24.8604 13.0609 21.4662 12.7083C19.5848 12.5128 17.9021 12.3526 17.7258 12.3526H17.4053L17.7258 12.3974ZM8.08476 12.8109C8.12002 12.8462 8.21297 12.8494 8.28669 12.8205C8.37323 12.7853 8.35079 12.7628 8.22258 12.7564C8.11681 12.75 8.04951 12.7756 8.08476 12.8109V12.8109ZM8.87964 12.9263C8.95335 12.9551 9.07194 12.9551 9.14566 12.9263C9.21938 12.8974 9.16169 12.8718 9.01105 12.8718C8.86361 12.875 8.80592 12.8974 8.87964 12.9263ZM9.62963 13.0353C9.70656 13.0673 9.84438 13.0673 9.95015 13.0353C10.0559 13.0064 9.99822 12.9808 9.81553 12.9808C9.63605 12.9808 9.55271 13.0032 9.62963 13.0353ZM25.2386 13.141C25.3668 13.1635 25.5912 13.1635 25.7194 13.141C25.854 13.1186 25.745 13.0994 25.479 13.0994C25.2098 13.0994 25.104 13.1186 25.2386 13.141ZM10.4854 13.141C10.5623 13.1699 10.7001 13.1699 10.8059 13.141C10.9117 13.1122 10.854 13.0865 10.6713 13.0865C10.4886 13.0865 10.4085 13.1122 10.4854 13.141ZM26.4662 13.2436C26.5655 13.2692 26.7643 13.2724 26.8957 13.25C27.0271 13.2276 26.9437 13.2051 26.7066 13.2019C26.4726 13.1955 26.3636 13.2147 26.4662 13.2436V13.2436ZM18.7418 13.2853C19.1264 13.3301 20.1521 13.3878 21.0399 13.4199C21.9277 13.4487 22.4277 13.4519 22.1617 13.4231C21.3187 13.3365 19.136 13.2051 18.5816 13.2051C18.0816 13.2051 18.0912 13.2115 18.7418 13.2853ZM11.2322 13.2468C11.3091 13.2756 11.4469 13.2756 11.5527 13.2468C11.6585 13.218 11.6008 13.1923 11.4181 13.1923C11.2386 13.1955 11.1585 13.218 11.2322 13.2468ZM27.5367 13.3494C27.636 13.375 27.8348 13.3782 27.963 13.3558C28.0944 13.3333 28.011 13.3109 27.7771 13.3077C27.5399 13.3045 27.4309 13.3237 27.5367 13.3494V13.3494ZM12.0335 13.3494C12.1392 13.3782 12.2995 13.3782 12.4085 13.3494C12.511 13.3237 12.4245 13.3013 12.2226 13.3013C12.0175 13.3013 11.9341 13.3237 12.0335 13.3494ZM28.6585 13.4615C28.7867 13.484 29.011 13.484 29.1393 13.4615C29.2739 13.4391 29.1649 13.4199 28.8989 13.4199C28.6328 13.4199 28.5239 13.4391 28.6585 13.4615ZM13.3989 13.5481C14.2643 13.6987 14.7514 13.7372 14.6617 13.6474C14.588 13.5737 13.4309 13.4135 12.9726 13.4103C12.7675 13.4103 12.9598 13.4712 13.3989 13.5481V13.5481ZM29.7258 13.5673C29.854 13.5897 30.0784 13.5897 30.2066 13.5673C30.3412 13.5449 30.2322 13.5256 29.9662 13.5256C29.7002 13.5256 29.5944 13.5449 29.7258 13.5673ZM23.0463 13.5673C23.2707 13.5897 23.6232 13.5897 23.8476 13.5673C24.0655 13.5449 23.886 13.5256 23.4469 13.5256C23.0078 13.5256 22.8251 13.5449 23.0463 13.5673ZM30.6905 13.6763C30.8219 13.6987 31.0655 13.6987 31.2258 13.6763C31.3925 13.6538 31.2835 13.6346 30.9854 13.6346C30.6841 13.6314 30.5559 13.6506 30.6905 13.6763ZM24.9149 13.6763C25.0431 13.6987 25.2675 13.6987 25.3957 13.6763C25.5303 13.6538 25.4213 13.6346 25.1553 13.6346C24.8893 13.6314 24.7835 13.6506 24.9149 13.6763ZM32.3187 13.8718C32.7578 13.9455 33.6777 14.0353 34.3508 14.0673L35.5816 14.125L34.0303 13.9327C32.1489 13.6955 31.0752 13.6603 32.3187 13.8718V13.8718ZM33.5752 14.6378C33.6521 14.6667 33.7899 14.6667 33.8957 14.6378C34.0014 14.609 33.9437 14.5833 33.761 14.5833C33.5816 14.5833 33.5014 14.609 33.5752 14.6378ZM7.99823 15.3526C8.10399 15.4295 8.27066 15.4712 8.37322 15.4455C8.47258 15.4199 9.10079 15.4776 9.77387 15.5737C10.4437 15.6699 11.6649 15.7692 12.4886 15.7917L13.9854 15.8333L12.3284 15.6795C11.4213 15.593 10.1168 15.4583 9.44053 15.3814C7.70015 15.1763 7.75464 15.1763 7.99823 15.3526ZM14.8957 16.6378C14.8957 16.7436 15.2098 16.7981 15.2675 16.7019C15.3027 16.6442 15.2322 16.5962 15.1136 16.5962C14.995 16.5929 14.8957 16.6154 14.8957 16.6378V16.6378ZM11.0719 17.3045C11.1777 17.3333 11.338 17.3333 11.4469 17.3045C11.5495 17.2788 11.463 17.2564 11.261 17.2564C11.0559 17.2564 10.9694 17.2788 11.0719 17.3045ZM11.9277 17.4103C12.0335 17.4391 12.1937 17.4391 12.3027 17.4103C12.4053 17.3846 12.3187 17.3622 12.1168 17.3622C11.9117 17.3622 11.8251 17.3846 11.9277 17.4103ZM12.8348 17.5224C12.9662 17.5449 13.2098 17.5449 13.37 17.5224C13.5335 17.5 13.4277 17.4808 13.1296 17.4808C12.8316 17.4808 12.7034 17.5 12.8348 17.5224ZM14.0655 17.6314C14.2258 17.6538 14.4918 17.6538 14.6521 17.6314C14.8123 17.609 14.6777 17.5897 14.3572 17.5897C14.0399 17.5865 13.9053 17.609 14.0655 17.6314ZM11.8155 18.0449C11.9021 18.1282 13.7931 18.4071 14.2835 18.4103C15.0175 18.4135 14.6905 18.2179 13.8444 18.1474C13.3957 18.1122 12.9245 18.0641 12.8059 18.0481C12.4149 17.9872 11.7546 17.984 11.8155 18.0449ZM13.8251 19.1603C14.3155 19.4295 14.4982 19.4263 14.0912 19.1571C13.9085 19.0353 13.7001 18.9455 13.6104 18.9487C13.5239 18.9551 13.6232 19.0513 13.8251 19.1603V19.1603Z" fill="#EEE4C9"/>
</svg>
