<svg width="40" height="20" viewBox="0 0 40 20" fill="none" xmlns="http://www.w3.org/2000/svg">
<path opacity="0.9" d="M23.7782 1.14744C23.6821 1.29808 23.5379 1.41347 23.4545 1.41347C23.368 1.41347 23.3039 1.45834 23.3039 1.51924C23.3039 1.57693 23.4 1.62501 23.5186 1.62501C23.7013 1.62501 23.7334 1.69552 23.7334 2.09937C23.7334 2.53847 23.7109 2.57693 23.4385 2.60578C23.2462 2.62821 23.1308 2.70834 23.1084 2.84616C23.0859 2.96154 22.9737 3.13142 22.8584 3.22757C22.5154 3.50321 22.7077 3.75962 23.2526 3.75962C23.6596 3.75962 23.7045 3.78526 23.6596 3.96795C23.6276 4.09616 23.4994 4.18911 23.3295 4.20834C23.1084 4.23398 23.0346 4.31411 22.9673 4.61539C22.9193 4.81731 22.9064 5.09936 22.9353 5.23078C22.9802 5.4327 23.0635 5.47116 23.4705 5.47116C24.0154 5.47116 24.0891 5.60898 23.6532 5.81731C23.3007 5.98718 23.2173 6.31731 23.4834 6.50642C23.5891 6.58334 23.634 6.64744 23.5795 6.64744C23.3231 6.65065 17.2077 6.98718 14.8135 7.13141C10.9225 7.36539 3.08593 7.91667 2.8199 7.98077C2.53144 8.04808 2.43529 8.3109 2.6308 8.50962C2.74618 8.62821 2.95452 8.65705 3.40323 8.6218C3.96413 8.57693 3.9449 8.58654 3.16285 8.73398C2.08272 8.9359 1.79746 9.0577 1.84554 9.30129C1.89682 9.55129 2.23336 9.53205 5.35516 9.08013C6.79746 8.8718 8.50259 8.67629 9.15003 8.64423L10.3263 8.58654L8.72375 8.78526C7.33272 8.95834 3.34554 9.60898 2.2558 9.84295C1.97695 9.90064 1.8808 9.97757 1.8808 10.1378C1.8808 10.4103 1.92246 10.4071 4.98016 9.88462C6.39041 9.64103 8.46093 9.34616 9.57631 9.22436C11.8423 8.98077 18.2205 8.57052 19.4641 8.58654L20.2654 8.59936L19.6244 8.69231C18.6757 8.83334 10.977 9.6859 6.634 10.1314C3.70452 10.4327 2.73977 10.5673 2.41285 10.7276C1.9417 10.9519 1.52823 11.4263 1.67567 11.5705C1.78464 11.6795 6.26221 11.2788 14.0667 10.4615C17.5827 10.093 19.6885 9.91667 19.9994 9.96154L20.4802 10.0321L19.8904 10.1058C19.5667 10.1474 16.2462 10.4712 12.5154 10.8269C8.78464 11.1827 5.10195 11.5449 4.33593 11.6282C3.5667 11.7147 2.65644 11.7821 2.29426 11.7821C1.61157 11.7821 1.06029 12.016 1.41926 12.1538C1.51221 12.1891 4.134 11.9776 7.24618 11.6827C15.1244 10.9327 17.15 10.8333 11.6084 11.4647C10.0154 11.6474 8.29105 11.8622 7.759 11.9423C7.23016 12.0256 5.5667 12.1955 4.0699 12.3205C0.0506695 12.6571 0.16926 12.6378 0.130798 12.9808C0.0891313 13.3526 0.275029 13.4006 1.32311 13.2981C2.0058 13.2308 2.17246 13.2436 2.24939 13.3782C2.32952 13.5192 2.45772 13.5096 3.28144 13.3109C4.55708 13.0032 4.53144 13.0064 10.1116 12.5897C18.259 11.984 19.1148 11.9808 12.6757 12.5865C7.15964 13.1058 2.27503 13.6667 2.11477 13.8045C2.04426 13.8654 1.77182 13.9263 1.5058 13.9455C1.03464 13.9776 1.02503 13.9872 1.02503 14.3526V14.7276L2.01541 14.7051L3.00259 14.6827L3.07311 15.1154C3.11157 15.3494 3.20772 15.5737 3.28144 15.6026C3.35836 15.6314 5.38721 15.4808 7.78144 15.2692C13.2237 14.7885 18.4353 14.3846 20.3199 14.2981C21.1116 14.2628 21.9802 14.2051 22.243 14.1731C22.6052 14.1282 22.6949 14.1442 22.6052 14.2372C22.5346 14.3109 20.4449 14.5481 17.368 14.8301C8.05708 15.6891 2.09554 16.2949 1.96413 16.3974C1.89362 16.4519 1.84554 16.7019 1.85836 16.9455C1.87439 17.3077 1.92246 17.4006 2.10516 17.4263C2.22695 17.4455 6.85195 17.0449 12.368 16.5385C17.884 16.0321 22.6532 15.6154 22.9577 15.609C23.3327 15.6026 23.5891 15.6603 23.7654 15.7917C24.0571 16.0128 24.2943 16.6026 24.2782 17.0609C24.2718 17.2308 24.3584 17.4712 24.4705 17.5962C24.5827 17.7212 24.727 17.9744 24.7911 18.1667C24.8968 18.4776 24.8872 18.5128 24.6949 18.5128C24.5763 18.5128 24.4545 18.5833 24.4225 18.6731C24.3295 18.9199 24.602 19.1795 24.8776 19.109C25.0731 19.0577 25.134 19.1122 25.243 19.4327C25.3648 19.7981 25.3936 19.8141 25.7782 19.7628C26.1084 19.7179 26.1949 19.7468 26.2366 19.9135C26.3039 20.1699 26.7173 20.1859 26.8135 19.9359C26.852 19.8333 26.8103 19.7147 26.7013 19.6378C26.5475 19.5256 26.6148 19.4615 27.2462 19.1314C27.6404 18.9231 28.2109 18.7212 28.5026 18.6827C28.8007 18.6442 29.1212 18.5897 29.2302 18.5577C29.4321 18.5 29.4705 18.1891 29.2943 18.016C29.2109 17.9327 29.2782 17.8654 29.525 17.7821C29.7173 17.7179 29.9641 17.6635 30.0763 17.6635C30.2622 17.6635 30.3167 17.5577 30.275 17.2692C30.2654 17.1987 30.4609 17.093 30.7173 17.0288C31.6596 16.8013 31.7141 16.7692 31.7526 16.4359C31.7718 16.266 31.8872 16.0513 32.0122 15.9615C33.7558 14.6859 34.4705 14.266 35.0154 14.1987C35.6244 14.1218 36.009 13.8462 35.9 13.5609C35.8391 13.4006 36.3199 12.9615 36.5539 12.9615C36.6116 12.9615 36.852 12.7917 37.0763 12.5897C37.8776 11.875 39.5731 10.609 39.727 10.609C40.0667 10.609 39.8648 10.2692 39.2686 9.83654C38.7782 9.48077 38.6404 9.32052 38.6468 9.11218C38.6564 8.86859 38.6244 8.84616 38.2718 8.86539C37.9737 8.88141 37.7911 8.80449 37.4577 8.52244C35.977 7.25642 31.727 4.64424 27.5795 2.44872C26.8423 2.0577 26.1725 1.66347 26.0987 1.57693C26.025 1.49039 25.8231 1.41667 25.65 1.41667C25.4577 1.41667 25.243 1.32052 25.102 1.16988C24.743 0.794879 24.0186 0.782058 23.7782 1.14744ZM25.759 2.15706C25.8936 2.2436 25.8936 2.26603 25.7526 2.3109C25.3904 2.42629 24.4802 2.48398 24.4802 2.38783C24.4802 2.3109 24.6821 2.25001 25.5507 2.06731C25.5795 2.0609 25.6725 2.10257 25.759 2.15706ZM27.3135 2.88142C27.634 3.03847 27.9 3.20513 27.9 3.25321C27.9 3.30129 27.7334 3.33975 27.5314 3.33975C27.2334 3.33975 27.1564 3.29488 27.1308 3.09937C27.1084 2.92308 27.0186 2.84937 26.8039 2.82693C26.6436 2.8109 26.5346 2.75001 26.5667 2.69872C26.65 2.5577 26.65 2.5577 27.3135 2.88142ZM28.7558 3.71795C28.7558 3.7436 28.6596 3.76603 28.5411 3.76603C28.4225 3.76603 28.3263 3.69231 28.3263 3.59937C28.3263 3.46796 28.368 3.45834 28.5411 3.55129C28.6596 3.61539 28.7558 3.69231 28.7558 3.71795ZM29.6116 4.15065C29.6116 4.17308 29.509 4.19231 29.3936 4.19231C29.275 4.19231 29.2045 4.14424 29.2398 4.08654C29.2975 3.99039 29.6116 4.04488 29.6116 4.15065ZM25.977 5.48077C25.6564 5.52565 25.1949 5.5577 24.9609 5.55449L24.5346 5.54808L24.9609 5.47436C25.1949 5.4327 25.6564 5.40065 25.977 5.40065H26.5667L25.977 5.48077ZM33.5026 6.35577C34.6372 7.05129 35.9193 7.92308 35.9193 8C35.9193 8.15385 35.5058 8 35.4609 7.83013C35.4257 7.69552 35.2782 7.60257 35.0218 7.5577C34.8071 7.51924 34.6372 7.42308 34.6372 7.33975C34.6372 7.06731 34.2205 6.96795 32.8295 6.90385C31.525 6.84295 31.4353 6.85257 31.3616 7.04167C31.2526 7.33334 31.1052 7.40385 30.6244 7.39423L30.1981 7.38462L30.5571 7.28206C30.7622 7.22436 30.9385 7.09616 30.9673 6.98398C31.0058 6.84295 31.1661 6.76283 31.5186 6.71154C31.7975 6.66988 32.0763 6.58654 32.1532 6.52244C32.3359 6.375 32.3135 5.91667 32.1212 5.84295C32.0346 5.8109 31.9898 5.73077 32.025 5.67308C32.1148 5.52565 32.2846 5.60577 33.5026 6.35577ZM31.4193 5.83975C31.3455 5.91347 28.9705 6.19872 27.3039 6.33654C24.727 6.54808 25.3584 6.38462 28.2237 6.09295C31.1853 5.79488 31.4866 5.77244 31.4193 5.83975ZM25.3103 6.50642C25.2109 6.53206 25.0122 6.53526 24.8808 6.51282C24.7494 6.49039 24.8327 6.46795 25.0699 6.46475C25.3039 6.46154 25.4129 6.48077 25.3103 6.50642ZM29.4257 7.47436C29.2334 7.4968 28.9225 7.4968 28.7302 7.47436C28.5378 7.45193 28.6917 7.4327 29.0763 7.4327C29.4641 7.4327 29.618 7.45193 29.4257 7.47436ZM27.5827 7.61539C27.1436 7.65706 26.4898 7.68911 26.1404 7.6859L25.4994 7.67949L26.2494 7.61539C26.6661 7.58013 27.3039 7.54808 27.6917 7.54488L28.3872 7.53847L27.5827 7.61539ZM25.0411 7.79488C24.9641 7.82372 24.8263 7.82372 24.7205 7.79488C24.6148 7.76603 24.6725 7.74039 24.8552 7.74039C25.0379 7.74359 25.118 7.76603 25.0411 7.79488ZM11.1436 8.54488C11.0667 8.57372 10.9289 8.57372 10.8231 8.54488C10.7173 8.51283 10.775 8.49039 10.9577 8.49039C11.1404 8.49039 11.2205 8.51283 11.1436 8.54488ZM20.8744 8.54488C20.7975 8.57372 20.6596 8.57372 20.5539 8.54488C20.4481 8.51283 20.5058 8.49039 20.6885 8.49039C20.868 8.49039 20.9481 8.51283 20.8744 8.54488ZM37.1276 8.83654C37.3167 8.97757 37.3135 8.98398 37.102 9.05129C36.977 9.08975 36.7878 9.05449 36.6596 8.96475C36.4449 8.81731 36.4449 8.8077 36.634 8.75641C36.7398 8.72757 36.8552 8.70193 36.884 8.69872C36.9128 8.69552 37.0218 8.75641 37.1276 8.83654ZM23.7334 8.89423C23.5827 8.98077 22.8584 9.05449 22.6116 9.00641C22.4032 8.96475 23.0507 8.81411 23.4673 8.8077C23.7526 8.80449 23.8423 8.83013 23.7334 8.89423ZM34.5186 9.47436C34.4449 9.54808 32.7013 9.8109 28.8007 10.3333C26.7911 10.6026 25.118 10.8205 25.0891 10.8205C25.0603 10.8205 25.0603 10.7308 25.0891 10.6122C25.1212 10.4872 25.2558 10.391 25.4257 10.3718C25.618 10.3494 25.7045 10.2788 25.6949 10.1538C25.6853 10.0481 25.7205 9.96795 25.775 9.96795C25.8263 9.96795 26.8487 9.89423 28.0346 9.80129C29.2205 9.71154 31.0443 9.59616 32.0699 9.55129C33.0955 9.50321 34.0795 9.45834 34.2526 9.44872C34.4225 9.43911 34.5443 9.45193 34.5186 9.47436ZM38.6148 9.875L39.2686 10.3173L39.0122 10.5096C38.7782 10.6859 38.7526 10.6859 38.7173 10.5192C38.6532 10.2083 38.4032 10.0962 37.9 10.1538C37.4417 10.2083 37.4289 10.2019 37.4513 9.89744C37.4641 9.69552 37.5475 9.56411 37.6853 9.51924C37.8039 9.48077 37.9128 9.44552 37.9321 9.43911C37.9481 9.4359 38.2494 9.62821 38.6148 9.875ZM23.0603 9.60257C23.025 9.63782 22.9321 9.64103 22.8584 9.61218C22.7718 9.57693 22.7943 9.55449 22.9225 9.54808C23.0282 9.54488 23.0923 9.57052 23.0603 9.60257ZM15.4737 10.9968C15.3744 11.0224 15.1757 11.0256 15.0475 11.0032C14.9161 10.9808 14.9994 10.9583 15.2334 10.9551C15.4705 10.9519 15.5763 10.9712 15.4737 10.9968ZM31.0763 10.9936C31.0411 11.0288 30.9481 11.0321 30.8744 11.0032C30.7879 10.9712 30.8103 10.9455 30.9385 10.9391C31.0443 10.9327 31.1116 10.9583 31.0763 10.9936ZM38.0699 11.1923C37.8135 11.3814 37.6532 11.4263 37.4834 11.3622C37.2238 11.2628 37.0571 11.2821 31.5603 11.9968C27.2205 12.5641 27.0475 12.5801 27.0475 12.4359C27.0475 12.3365 31.4834 11.7019 34.9064 11.3077C38.8263 10.8558 38.5154 10.8654 38.0699 11.1923ZM30.3872 11.109C30.3103 11.1378 30.1725 11.1378 30.0667 11.109C29.9609 11.0801 30.0186 11.0545 30.2013 11.0545C30.3808 11.0577 30.4641 11.0801 30.3872 11.109ZM29.5859 11.2115C29.4802 11.2404 29.3199 11.2404 29.2109 11.2115C29.1084 11.1859 29.1949 11.1635 29.3968 11.1635C29.602 11.1635 29.6885 11.1859 29.5859 11.2115ZM28.2237 11.4103C27.3135 11.5673 26.9802 11.5962 27.0795 11.5C27.1628 11.4199 28.1596 11.2756 28.65 11.2724C28.8552 11.2724 28.6596 11.3333 28.2237 11.4103ZM26.6949 11.6346C26.6596 11.6699 26.5667 11.6731 26.493 11.6442C26.4064 11.6122 26.4289 11.5865 26.5571 11.5801C26.6629 11.5737 26.727 11.5994 26.6949 11.6346ZM25.9257 11.7788C25.4449 11.9038 25.102 11.9038 25.1757 11.7821C25.2109 11.7244 25.4641 11.6795 25.743 11.6859C26.1917 11.6955 26.2109 11.7051 25.9257 11.7788ZM23.0603 12.2756C23.025 12.3109 22.9321 12.3141 22.8584 12.2853C22.7718 12.25 22.7943 12.2276 22.9225 12.2212C23.0282 12.2147 23.0923 12.2404 23.0603 12.2756ZM22.2911 12.3974C22.1084 12.4263 21.9161 12.4904 21.8423 12.5481C21.7718 12.6026 20.7622 12.718 19.5987 12.8013C15.5026 13.093 15.1564 13.0609 18.5507 12.7083C20.4321 12.5128 22.1148 12.3526 22.2911 12.3526H22.6116L22.2911 12.3974ZM31.9321 12.8109C31.8968 12.8462 31.8039 12.8494 31.7302 12.8205C31.6436 12.7853 31.6661 12.7628 31.7943 12.7564C31.9 12.75 31.9673 12.7756 31.9321 12.8109ZM31.1372 12.9263C31.0635 12.9551 30.9449 12.9551 30.8712 12.9263C30.7975 12.8974 30.8552 12.8718 31.0058 12.8718C31.1532 12.875 31.2109 12.8974 31.1372 12.9263ZM30.3872 13.0353C30.3103 13.0673 30.1725 13.0673 30.0667 13.0353C29.9609 13.0064 30.0186 12.9808 30.2013 12.9808C30.3808 12.9808 30.4641 13.0032 30.3872 13.0353ZM14.7782 13.141C14.65 13.1635 14.4257 13.1635 14.2975 13.141C14.1628 13.1186 14.2718 13.0994 14.5378 13.0994C14.8071 13.0994 14.9128 13.1186 14.7782 13.141ZM29.5314 13.141C29.4545 13.1699 29.3167 13.1699 29.2109 13.141C29.1052 13.1122 29.1629 13.0865 29.3455 13.0865C29.5282 13.0865 29.6084 13.1122 29.5314 13.141ZM13.5507 13.2436C13.4513 13.2692 13.2526 13.2724 13.1212 13.25C12.9898 13.2276 13.0731 13.2051 13.3103 13.2019C13.5443 13.1955 13.6532 13.2147 13.5507 13.2436ZM21.275 13.2853C20.8904 13.3301 19.8648 13.3878 18.977 13.4199C18.0891 13.4487 17.5891 13.4519 17.8552 13.4231C18.6981 13.3365 20.8808 13.2051 21.4353 13.2051C21.9353 13.2051 21.9257 13.2115 21.275 13.2853ZM28.7846 13.2468C28.7077 13.2756 28.5699 13.2756 28.4641 13.2468C28.3584 13.218 28.4161 13.1923 28.5987 13.1923C28.7782 13.1955 28.8584 13.218 28.7846 13.2468ZM12.4802 13.3494C12.3808 13.375 12.1821 13.3782 12.0539 13.3558C11.9225 13.3333 12.0058 13.3109 12.2398 13.3077C12.477 13.3045 12.5859 13.3237 12.4802 13.3494ZM27.9834 13.3494C27.8776 13.3782 27.7173 13.3782 27.6084 13.3494C27.5058 13.3237 27.5923 13.3013 27.7943 13.3013C27.9994 13.3013 28.0827 13.3237 27.9834 13.3494ZM11.3584 13.4615C11.2302 13.484 11.0058 13.484 10.8776 13.4615C10.743 13.4391 10.852 13.4199 11.118 13.4199C11.384 13.4199 11.493 13.4391 11.3584 13.4615ZM26.618 13.5481C25.7526 13.6987 25.2654 13.7372 25.3552 13.6474C25.4289 13.5737 26.5859 13.4135 27.0443 13.4103C27.2494 13.4103 27.0571 13.4712 26.618 13.5481ZM10.2911 13.5673C10.1628 13.5897 9.93849 13.5897 9.81028 13.5673C9.67567 13.5449 9.78464 13.5256 10.0507 13.5256C10.3167 13.5256 10.4225 13.5449 10.2911 13.5673ZM16.9705 13.5673C16.7462 13.5897 16.3936 13.5897 16.1693 13.5673C15.9513 13.5449 16.1308 13.5256 16.5699 13.5256C17.009 13.5256 17.1917 13.5449 16.9705 13.5673ZM9.32631 13.6763C9.1949 13.6987 8.95131 13.6987 8.79105 13.6763C8.62439 13.6538 8.73336 13.6346 9.03144 13.6346C9.33272 13.6314 9.46093 13.6506 9.32631 13.6763ZM15.102 13.6763C14.9737 13.6987 14.7494 13.6987 14.6212 13.6763C14.4866 13.6538 14.5955 13.6346 14.8616 13.6346C15.1276 13.6314 15.2334 13.6506 15.102 13.6763ZM7.69811 13.8718C7.259 13.9455 6.33913 14.0353 5.66605 14.0673L4.43529 14.125L5.98657 13.9327C7.86798 13.6955 8.9417 13.6603 7.69811 13.8718ZM6.4417 14.6378C6.36477 14.6667 6.22695 14.6667 6.12118 14.6378C6.01541 14.609 6.07311 14.5833 6.2558 14.5833C6.43528 14.5833 6.51541 14.609 6.4417 14.6378ZM32.0186 15.3526C31.9129 15.4295 31.7462 15.4712 31.6436 15.4455C31.5443 15.4199 30.9161 15.4776 30.243 15.5737C29.5731 15.6699 28.352 15.7692 27.5282 15.7917L26.0314 15.8333L27.6885 15.6795C28.5955 15.593 29.9 15.4583 30.5763 15.3814C32.3167 15.1763 32.2622 15.1763 32.0186 15.3526ZM25.1212 16.6378C25.1212 16.7436 24.8071 16.7981 24.7494 16.7019C24.7141 16.6442 24.7846 16.5962 24.9032 16.5962C25.0218 16.5929 25.1212 16.6154 25.1212 16.6378ZM28.9449 17.3045C28.8391 17.3333 28.6789 17.3333 28.5699 17.3045C28.4673 17.2788 28.5539 17.2564 28.7558 17.2564C28.9609 17.2564 29.0475 17.2788 28.9449 17.3045ZM28.0891 17.4103C27.9834 17.4391 27.8231 17.4391 27.7141 17.4103C27.6116 17.3846 27.6981 17.3622 27.9 17.3622C28.1052 17.3622 28.1917 17.3846 28.0891 17.4103ZM27.1821 17.5224C27.0507 17.5449 26.8071 17.5449 26.6468 17.5224C26.4834 17.5 26.5891 17.4808 26.8872 17.4808C27.1853 17.4808 27.3135 17.5 27.1821 17.5224ZM25.9513 17.6314C25.7911 17.6538 25.525 17.6538 25.3648 17.6314C25.2045 17.609 25.3391 17.5897 25.6596 17.5897C25.977 17.5865 26.1116 17.609 25.9513 17.6314ZM28.2013 18.0449C28.1148 18.1282 26.2237 18.4071 25.7334 18.4103C24.9994 18.4135 25.3263 18.2179 26.1725 18.1474C26.6212 18.1122 27.0923 18.0641 27.2109 18.0481C27.602 17.9872 28.2622 17.984 28.2013 18.0449ZM26.1917 19.1603C25.7013 19.4295 25.5186 19.4263 25.9257 19.1571C26.1084 19.0353 26.3167 18.9455 26.4064 18.9487C26.493 18.9551 26.3936 19.0513 26.1917 19.1603Z" fill="#428440"/>
</svg>
