<svg width="12" height="20" viewBox="0 0 12 20" fill="none" xmlns="http://www.w3.org/2000/svg">
<path d="M7.35039 19.9609H4.1413C3.60528 19.9609 3.16925 19.5258 3.16925 18.9908V11.7667H1.297C0.760983 11.7667 0.324951 11.3313 0.324951 10.7965V7.70096C0.324951 7.16599 0.760983 6.7308 1.297 6.7308H3.16925V5.18066C3.16925 3.64365 3.65283 2.33597 4.56755 1.39923C5.4864 0.458221 6.77049 -0.0390625 8.28101 -0.0390625L10.7284 -0.0350952C11.2635 -0.0341797 11.6988 0.401001 11.6988 0.935059V3.8092C11.6988 4.34418 11.2629 4.77936 10.727 4.77936L9.07923 4.77997C8.57669 4.77997 8.44873 4.88052 8.42136 4.91135C8.37626 4.96246 8.3226 5.10696 8.3226 5.50598V6.73065H10.6032C10.7749 6.73065 10.9412 6.77292 11.0842 6.85257C11.3926 7.02454 11.5843 7.3497 11.5843 7.70111L11.5831 10.7967C11.5831 11.3313 11.147 11.7665 10.611 11.7665H8.3226V18.9908C8.3226 19.5258 7.88641 19.9609 7.35039 19.9609ZM4.34403 18.7885H7.14766V11.2418C7.14766 10.8846 7.43891 10.594 7.79667 10.594H10.4083L10.4093 7.90329H7.79651C7.43876 7.90329 7.14766 7.61276 7.14766 7.25555V5.50598C7.14766 5.04791 7.19429 4.52698 7.54074 4.13544C7.95934 3.66211 8.61904 3.60748 9.07893 3.60748L10.524 3.60687V1.13709L8.28009 1.13342C5.85256 1.13342 4.34403 2.68433 4.34403 5.18066V7.25555C4.34403 7.61261 4.05294 7.90329 3.69518 7.90329H1.49973V10.594H3.69518C4.05294 10.594 4.34403 10.8846 4.34403 11.2418V18.7885ZM10.7261 1.13739H10.7263H10.7261Z" fill="#428440"/>
</svg>
