<svg width="25" height="23" viewBox="0 0 25 23" fill="none" xmlns="http://www.w3.org/2000/svg">
<path d="M12.7836 22.4664C12.8723 22.4666 12.9517 22.4115 12.9822 22.3281C13.0124 22.2448 12.9876 22.1513 12.9197 22.0944L11.8244 21.1744L13.158 21.944C13.256 22.0021 13.3821 21.972 13.4432 21.8761C13.5044 21.7801 13.4783 21.653 13.3842 21.5888L12.6989 21.1094L13.5129 21.5796C13.6112 21.6366 13.7369 21.6052 13.7971 21.5088C13.8573 21.4124 13.8301 21.2857 13.7356 21.2224L12.4141 20.3327L13.8945 21.1869C13.9926 21.2429 14.1174 21.2114 14.1774 21.1158C14.2371 21.0199 14.2109 20.894 14.1178 20.8302L10.4149 18.3262L14.4261 20.6431C14.5249 20.7023 14.6531 20.6711 14.7136 20.573C14.774 20.475 14.7445 20.3464 14.6473 20.2847L9.49319 16.894L14.9863 20.0652C15.0854 20.1188 15.209 20.0851 15.2671 19.9887C15.3251 19.892 15.2972 19.7669 15.2033 19.7046L12.2544 17.8603L15.3768 19.663C15.4761 19.7168 15.6003 19.6826 15.6582 19.5856C15.716 19.4886 15.6871 19.3633 15.5926 19.3014L14.8679 18.8565L15.6961 19.3348C15.796 19.3945 15.9254 19.3621 15.9852 19.2622C16.045 19.1625 16.0126 19.0332 15.9127 18.9734L11.6853 16.3408L16.1217 18.8995C16.221 18.9527 16.3445 18.9182 16.4021 18.8214C16.4596 18.7244 16.4307 18.5995 16.3366 18.5378L15.8217 18.2238L16.4351 18.5777C16.534 18.6323 16.6584 18.5989 16.7168 18.5021C16.7753 18.4055 16.7471 18.2799 16.6528 18.2177L9.16074 13.4704L17.0009 17.9965C17.1004 18.0524 17.2263 18.019 17.2849 17.9211C17.3435 17.8229 17.3135 17.696 17.2169 17.6349L12.2099 14.537L17.4334 17.5524C17.5333 17.6093 17.6602 17.5757 17.7188 17.4768C17.7774 17.378 17.746 17.2504 17.6482 17.19L16.3896 16.4247L17.7603 17.2163C17.8602 17.2731 17.9872 17.2396 18.0459 17.1407C18.1045 17.0417 18.073 16.9143 17.9751 16.8539L17.3289 16.4623L18.0742 16.894C18.1743 16.9532 18.3037 16.9203 18.3629 16.82C18.4223 16.7199 18.3891 16.5905 18.289 16.5313L17.1517 15.8413L18.3989 16.5612C18.4984 16.6173 18.6246 16.5838 18.6832 16.4858C18.7418 16.3876 18.7115 16.2609 18.6151 16.1998L12.627 12.4974L18.8538 16.0936C18.9532 16.1483 19.0779 16.1146 19.1362 16.0174C19.1944 15.9202 19.1655 15.7945 19.0704 15.7326L12.0932 11.3978L19.3467 15.5856C19.4462 15.6406 19.5716 15.6067 19.6298 15.5089C19.6879 15.4111 19.658 15.2848 19.5621 15.2237L15.1435 12.5188L19.7457 15.1757C19.8103 15.2144 19.8905 15.2158 19.9565 15.1793C20.0222 15.1427 20.0637 15.0738 20.0649 14.9984C20.0662 14.9232 20.0272 14.853 19.9626 14.8143L12.1753 9.96176L20.271 14.6377C20.3707 14.6918 20.4953 14.6575 20.5529 14.5599C20.6106 14.4624 20.5809 14.3366 20.4854 14.2755L19.1416 13.4615L20.5975 14.2998C20.6968 14.3546 20.8215 14.3208 20.8798 14.2236C20.938 14.1264 20.9089 14.0007 20.814 13.9388L13.0794 9.12427L21.1199 13.7653C21.2197 13.8248 21.3491 13.7921 21.4085 13.6922C21.4681 13.5923 21.4355 13.4631 21.3354 13.4035L15.5471 9.8422L21.5584 13.3133C21.6584 13.3726 21.7878 13.3395 21.8472 13.2394C21.9064 13.1391 21.8735 13.0099 21.7732 12.9505L20.137 11.9593L21.8908 12.9704C21.9897 13.024 22.1135 12.9903 22.1716 12.8938C22.2296 12.7972 22.2015 12.6721 22.1078 12.6098L14.0617 7.58004L22.4338 12.4135C22.5337 12.4729 22.6631 12.4401 22.7225 12.34C22.7819 12.2399 22.7491 12.1107 22.649 12.0511L18.4647 9.48989L22.818 12.0031C22.9167 12.056 23.0397 12.0222 23.0976 11.9262C23.1554 11.8303 23.1281 11.7058 23.0353 11.6429L15.0027 6.5933L23.3145 11.392C23.4142 11.446 23.5388 11.4117 23.5965 11.3141C23.6543 11.2165 23.6244 11.0908 23.529 11.0297L22.7622 10.5663L23.5695 11.0305C23.6342 11.069 23.7145 11.07 23.7802 11.0332C23.8458 10.9963 23.8869 10.9273 23.8878 10.8521C23.8888 10.7767 23.8495 10.7067 23.7847 10.6681L21.7576 9.4305L23.802 10.6101C23.9013 10.6646 24.0259 10.6311 24.0843 10.5339C24.1426 10.4367 24.1134 10.3108 24.0186 10.2491L23.4428 9.89022L24.0168 10.2213C24.116 10.278 24.2423 10.2452 24.3015 10.1475C24.3607 10.0499 24.3312 9.92281 24.2351 9.8611L21.7846 8.30491L24.2068 9.70317C24.3051 9.75735 24.4285 9.72496 24.4877 9.6297C24.5467 9.53424 24.5207 9.40928 24.4283 9.34546L19.5548 6.11102L24.4415 8.93356C24.5398 8.98948 24.665 8.95766 24.7245 8.86144C24.7843 8.7654 24.7573 8.6391 24.6634 8.57585L20.0039 5.46984L24.5788 8.11111C24.6775 8.16838 24.8036 8.13676 24.8636 8.03976C24.9235 7.94296 24.8956 7.81588 24.8003 7.75321L21.0381 5.26736L24.6015 7.3255C24.6997 7.38142 24.8244 7.34999 24.8844 7.25434C24.9444 7.1585 24.918 7.03258 24.8248 6.96875L20.82 4.25632L24.5228 6.39198C24.6204 6.44809 24.745 6.41743 24.8053 6.32236C24.8657 6.2273 24.8408 6.10157 24.7486 6.03697L21.0701 3.47147L24.2646 5.31576C24.3616 5.37052 24.4847 5.34025 24.5452 5.24653C24.6056 5.15281 24.5824 5.02805 24.4924 4.96229L21.7311 2.98244L23.749 4.14679C23.8431 4.20117 23.9634 4.17475 24.0263 4.08604C24.0891 3.99715 24.0739 3.87508 23.9912 3.80431L22.2674 2.32989C22.3687 2.35052 22.4699 2.29479 22.5065 2.19818C22.5432 2.10157 22.5042 1.99261 22.4148 1.94113L20.539 0.857967C20.4447 0.803587 20.3244 0.829813 20.2615 0.91871C20.1989 1.00761 20.2139 1.12967 20.2966 1.20044L21.9762 2.63688L18.2449 0.483094C18.1479 0.429871 18.0264 0.460532 17.9664 0.553479C17.9066 0.646233 17.9286 0.769648 18.0169 0.835984L20.777 2.81602L17.0105 0.641412C16.9129 0.586068 16.7893 0.616922 16.729 0.711412C16.6686 0.805901 16.6929 0.931052 16.7843 0.99623L20.4644 3.56288L15.9675 0.966727C15.8693 0.910804 15.7445 0.942236 15.6846 1.03788C15.6246 1.13372 15.651 1.25964 15.7442 1.32347L19.7492 4.03764L15.173 1.39598C15.0748 1.3416 14.9512 1.374 14.8922 1.46945C14.833 1.56471 14.859 1.68967 14.9514 1.7535L18.7154 4.23896L14.5482 1.8341C14.4502 1.7805 14.3274 1.81289 14.2684 1.90777C14.2094 2.00264 14.2348 2.12702 14.3262 2.19124L18.984 5.2959L13.9122 2.36768C13.8133 2.30655 13.6833 2.33683 13.6222 2.43575C13.5609 2.53468 13.5913 2.66446 13.6901 2.72578L18.5654 5.9606L13.3387 2.9433C13.2396 2.8866 13.1133 2.91919 13.0541 3.01696C12.9949 3.11473 13.0244 3.24181 13.1206 3.30332L15.5741 4.86202L12.9442 3.34555C12.8453 3.29329 12.7228 3.32762 12.6653 3.42346C12.6077 3.5193 12.6351 3.64329 12.7276 3.70616L13.2988 4.0629L7.1105 0.489843C7.01042 0.430449 6.88122 0.463231 6.82183 0.563313C6.76224 0.663395 6.79522 0.792596 6.8953 0.851989L8.92201 2.0873L6.18373 0.507584C6.08365 0.44819 5.95426 0.481358 5.89506 0.58144C5.83566 0.681522 5.86883 0.810915 5.96891 0.870116L6.72715 1.33061L5.50553 0.626371C5.40641 0.570641 5.28087 0.603809 5.22225 0.701384C5.16344 0.798766 5.19275 0.925074 5.2882 0.986974L13.3266 6.03697L4.49912 0.939729C4.39942 0.882843 4.27234 0.916396 4.21372 1.01532C4.1551 1.11405 4.18653 1.24171 4.2843 1.30207L8.47501 3.86737L3.89419 1.2232C3.79469 1.16593 3.66761 1.19871 3.60841 1.29725C3.5494 1.39559 3.57987 1.52325 3.67725 1.58419L11.7187 6.612L3.15447 1.66769C3.05497 1.6135 2.9304 1.64782 2.87254 1.7454C2.81489 1.84297 2.84478 1.9687 2.94004 2.02983L4.57027 3.01812L2.78345 1.98644C2.68414 1.93264 2.55996 1.96677 2.50211 2.06377C2.44425 2.16077 2.47318 2.28611 2.56767 2.34801L8.35835 5.9122L2.29481 2.41165C2.1953 2.35418 2.06803 2.38716 2.00902 2.4855C1.94982 2.58404 1.98048 2.7117 2.07787 2.77264L9.81407 7.58795L1.83971 2.98399C1.74021 2.92999 1.61564 2.96432 1.55779 3.06189C1.50013 3.15927 1.53002 3.2852 1.62528 3.34632L2.96375 4.15643L1.55509 3.34343C1.45558 3.28597 1.32831 3.31894 1.2693 3.41729C1.2101 3.51583 1.24076 3.64348 1.33815 3.70442L9.13123 8.55984L1.20316 3.98326C1.10327 3.92387 0.973879 3.95684 0.914486 4.05673C0.855093 4.15681 0.887875 4.28621 0.987957 4.3456L5.40063 7.04743L0.949581 4.47789C0.850464 4.42312 0.725698 4.45687 0.667463 4.55406C0.609034 4.65125 0.638151 4.77698 0.733219 4.83888L7.71215 9.17267L0.734377 5.14471C0.63526 5.09168 0.512037 5.12601 0.454378 5.22223C0.396721 5.31865 0.424875 5.44342 0.518208 5.5057L6.5077 9.20893L0.554075 5.77278C0.453993 5.71339 0.3246 5.74656 0.2654 5.84664C0.206005 5.94691 0.239174 6.07611 0.339256 6.13551L1.48297 6.82586L0.502201 6.25969C0.402121 6.20049 0.272921 6.23366 0.213718 6.33393C0.154518 6.43402 0.187687 6.56322 0.287767 6.62242L0.92355 7.0079L0.457657 6.7387C0.357767 6.68181 0.230688 6.71536 0.17226 6.81429C0.113638 6.91321 0.145069 7.04068 0.242838 7.10104L1.49434 7.86177L0.445894 7.25685C0.34697 7.20536 0.224903 7.23988 0.167631 7.33572C0.110552 7.43136 0.137934 7.55517 0.23011 7.61784L5.24559 10.7235L0.513578 7.99194C0.415041 7.93987 0.292782 7.97362 0.235125 8.06907C0.177273 8.16453 0.203884 8.28852 0.295868 8.35177L7.78447 13.0973L0.749611 9.03576C0.649529 8.97637 0.520136 9.00934 0.460743 9.10942C0.401348 9.20931 0.434324 9.33871 0.534212 9.3981L1.04909 9.71204L0.953438 9.65669C0.854128 9.60212 0.729555 9.63567 0.671127 9.73286C0.61289 9.83005 0.642008 9.95597 0.736883 10.0179L4.96559 12.6507L1.4471 10.6172C1.3476 10.5623 1.22244 10.5962 1.16421 10.694C1.10616 10.7917 1.13605 10.9178 1.23189 10.9792L2.11663 11.5233C2.01597 11.4933 1.90856 11.5419 1.86478 11.6373C1.82101 11.7328 1.85418 11.8458 1.9425 11.9025L4.89732 13.7521L3.47554 12.9312C3.37662 12.872 3.24858 12.9033 3.18802 13.0012C3.12747 13.0994 3.15717 13.2278 3.25436 13.2897L8.40289 16.6782L5.47178 14.9861C5.37363 14.9302 5.24886 14.9616 5.18909 15.0575C5.12911 15.1531 5.15534 15.279 5.24867 15.3429L8.95556 17.8482L7.35483 16.9243C7.291 16.8844 7.21078 16.8817 7.14444 16.917C7.07792 16.9523 7.0353 17.0203 7.03279 17.0955C7.03009 17.1707 7.06769 17.2417 7.13152 17.2814L8.63468 18.2925C8.55292 18.2817 8.47231 18.3187 8.42738 18.3877C8.36664 18.483 8.39171 18.6091 8.48427 18.6737L9.80192 19.5955C9.72806 19.618 9.67252 19.6792 9.65691 19.7547C9.64148 19.8305 9.66867 19.9084 9.72787 19.9582L11.431 21.3942C11.3787 21.4386 11.3514 21.5055 11.3575 21.5738C11.3639 21.642 11.4028 21.703 11.462 21.7371L12.6765 22.4381C12.7091 22.4572 12.7459 22.467 12.7836 22.4664Z" fill="#DD4352"/>
</svg>
