<svg width="30" height="30" viewBox="0 0 30 30" fill="none" xmlns="http://www.w3.org/2000/svg">
<path d="M30.0005 0H0.000488281V30H30.0005V0Z" fill="#61A8DE"/>
<path d="M21.8453 7.55856L5.38285 13.9042C4.84963 14.1098 4.88193 14.8667 5.43082 15.027L9.61411 16.2489L11.1753 21.1491C11.3384 21.6609 11.9941 21.8161 12.3737 21.4327L14.5366 19.2482L18.7803 22.3295C19.2997 22.7065 20.0393 22.4264 20.1711 21.8027L22.9818 8.51058C23.1195 7.85949 22.4719 7.31704 21.8453 7.55856ZM19.7813 10.5084L12.1346 17.1971C12.0584 17.2638 12.0099 17.356 11.9986 17.4561L11.7042 20.0448C11.6945 20.1292 11.5751 20.1404 11.5496 20.0593L10.3383 16.1986C10.2829 16.0218 10.3552 15.8303 10.5142 15.7328L19.5441 10.193C19.7518 10.0655 19.9644 10.3483 19.7813 10.5084Z" fill="white"/>
</svg>
