<svg width="30" height="30" viewBox="0 0 30 30" fill="none" xmlns="http://www.w3.org/2000/svg">
<path d="M30.0005 0H0.000488281V30H30.0005V0Z" fill="#7D3DAF"/>
<path d="M23.6202 10.8274L23.6152 10.8067C23.205 9.10824 21.3561 7.28573 19.6581 6.90657L19.6389 6.90253C16.8926 6.36582 14.1079 6.36582 11.362 6.90253L11.3423 6.90657C9.64491 7.28573 7.79595 9.10824 7.38526 10.8067L7.38076 10.8274C6.87373 13.1994 6.87373 15.6047 7.38076 17.9767L7.38526 17.9974C7.77843 19.6234 9.4897 21.3621 11.1243 21.8403V23.7363C11.1243 24.4224 11.9406 24.7595 12.4048 24.2643L14.28 22.2676C14.6867 22.2909 15.0936 22.3039 15.5005 22.3039C16.883 22.3039 18.266 22.17 19.6389 21.9016L19.6581 21.8976C21.3561 21.5184 23.205 19.6959 23.6152 17.9975L23.6202 17.9767C24.1272 15.6047 24.1272 13.1994 23.6202 10.8274ZM22.1363 17.6327C21.8625 18.7408 20.4586 20.1183 19.3432 20.3728C17.8829 20.6573 16.411 20.7789 14.9407 20.7371C14.9114 20.7363 14.8833 20.7479 14.8629 20.7694C14.6543 20.9888 13.4938 22.2092 13.4938 22.2092L12.0375 23.7402C11.931 23.8539 11.744 23.7766 11.744 23.6196V20.4789C11.744 20.427 11.7078 20.3829 11.6581 20.3729C11.6578 20.3729 11.6575 20.3728 11.6572 20.3728C10.5418 20.1182 9.13845 18.7407 8.86409 17.6326C8.40777 15.4887 8.40777 13.3153 8.86409 11.1713C9.13845 10.0633 10.5418 8.68574 11.6572 8.43123C14.2076 7.93434 16.7934 7.93434 19.3432 8.43123C20.4592 8.68574 21.8625 10.0633 22.1363 11.1713C22.5932 13.3154 22.5932 15.4887 22.1363 17.6327Z" fill="white"/>
<path d="M17.9269 19.0826C17.7554 19.0293 17.5919 18.9934 17.4402 18.9289C15.8675 18.2605 14.4201 17.3982 13.2736 16.0763C12.6216 15.3246 12.1113 14.476 11.68 13.5779C11.4754 13.152 11.303 12.7094 11.1273 12.2697C10.9671 11.8687 11.2031 11.4545 11.4516 11.1524C11.6847 10.8689 11.9848 10.6519 12.3097 10.4919C12.5634 10.3671 12.8136 10.4391 12.9988 10.6593C13.3992 11.1354 13.767 11.6359 14.0649 12.1878C14.248 12.5272 14.1978 12.9422 13.8659 13.1732C13.7852 13.2293 13.7117 13.2952 13.6365 13.3587C13.5706 13.4142 13.5086 13.4704 13.4634 13.5457C13.3808 13.6834 13.3769 13.8457 13.43 13.9955C13.8394 15.1478 14.5293 16.0439 15.6616 16.5265C15.8428 16.6038 16.0247 16.6937 16.2334 16.6687C16.583 16.6269 16.6962 16.2341 16.9411 16.0289C17.1806 15.8283 17.4865 15.8257 17.7444 15.9929C18.0024 16.1601 18.2525 16.3397 18.501 16.5211C18.745 16.6992 18.988 16.8734 19.213 17.0765C19.4294 17.2717 19.5039 17.5278 19.3821 17.7928C19.159 18.278 18.8344 18.6817 18.3661 18.9394C18.2339 19.012 18.076 19.0356 17.9269 19.0826C17.7554 19.0292 18.076 19.0356 17.9269 19.0826Z" fill="white"/>
<path d="M15.5047 9.93691C17.5618 9.99595 19.2513 11.3945 19.6134 13.4778C19.6751 13.8328 19.6971 14.1957 19.7245 14.556C19.7361 14.7076 19.6523 14.8516 19.4926 14.8535C19.3277 14.8556 19.2535 14.7142 19.2428 14.5627C19.2217 14.2629 19.207 13.9617 19.1666 13.6643C18.9537 12.0945 17.7317 10.7958 16.2064 10.5171C15.9769 10.4751 15.742 10.4641 15.5095 10.4391C15.3625 10.4233 15.17 10.4142 15.1375 10.227C15.1101 10.0701 15.2394 9.94517 15.3853 9.93714C15.4249 9.93489 15.4648 9.93674 15.5047 9.93691C17.5618 9.99595 15.4648 9.93674 15.5047 9.93691Z" fill="white"/>
<path d="M18.6309 14.0886C18.6276 14.1149 18.6258 14.1768 18.6107 14.2351C18.5561 14.4466 18.243 14.4731 18.1709 14.2596C18.1496 14.1962 18.1463 14.1242 18.1462 14.0559C18.1455 13.6096 18.0508 13.1637 17.8311 12.7754C17.6052 12.3763 17.2602 12.0407 16.8555 11.8377C16.6107 11.715 16.3461 11.6387 16.0779 11.5932C15.9606 11.5733 15.8421 11.5613 15.7244 11.5445C15.5816 11.5242 15.5054 11.431 15.5121 11.2869C15.5184 11.1518 15.6148 11.0547 15.7584 11.063C16.2305 11.0905 16.6865 11.195 17.1062 11.4227C17.9597 11.8857 18.4472 12.6165 18.5895 13.5924C18.596 13.6366 18.6063 13.6804 18.6096 13.7248C18.6177 13.8344 18.6227 13.9441 18.6309 14.0886C18.6276 14.1149 18.6227 13.9441 18.6309 14.0886Z" fill="white"/>
<path d="M17.3512 14.0374C17.1791 14.0406 17.087 13.943 17.0692 13.7814C17.0569 13.6687 17.0472 13.5544 17.0209 13.4448C16.9692 13.2288 16.8571 13.0287 16.6798 12.8964C16.5961 12.8339 16.5012 12.7883 16.4018 12.759C16.2756 12.7216 16.1445 12.7319 16.0185 12.7003C15.8817 12.6659 15.8061 12.5525 15.8276 12.421C15.8471 12.3014 15.9608 12.208 16.0884 12.2175C16.8859 12.2764 17.4559 12.6988 17.5373 13.6606C17.543 13.7285 17.5498 13.8002 17.5351 13.8652C17.5099 13.9763 17.4296 14.032 17.3512 14.0374C17.1791 14.0406 17.4296 14.032 17.3512 14.0374Z" fill="white"/>
</svg>
