<svg width="9" height="16" viewBox="0 0 9 16" fill="none" xmlns="http://www.w3.org/2000/svg">
<path d="M5.51273 15.5195H3.10592C2.7039 15.5195 2.37688 15.1931 2.37688 14.7919V9.37383H0.972692C0.570677 9.37383 0.243652 9.04733 0.243652 8.64621V6.32455C0.243652 5.92332 0.570677 5.59693 0.972692 5.59693H2.37688V4.43433C2.37688 3.28156 2.73956 2.3008 3.4256 1.59825C4.11474 0.892494 5.07781 0.519531 6.2107 0.519531L8.04625 0.522507C8.44758 0.523193 8.77403 0.849579 8.77403 1.25012V3.40573C8.77403 3.80696 8.44712 4.13335 8.04522 4.13335L6.80936 4.13381C6.43246 4.13381 6.33648 4.20922 6.31596 4.23234C6.28213 4.27068 6.24189 4.37905 6.24189 4.67832V5.59682H7.95234C8.08111 5.59682 8.20587 5.62852 8.31308 5.68826C8.54436 5.81723 8.68815 6.0611 8.68815 6.32466L8.68723 8.64633C8.68723 9.04733 8.36021 9.37371 7.95819 9.37371H6.24189V14.7919C6.24189 15.1931 5.91475 15.5195 5.51273 15.5195ZM3.25796 14.6402H5.36069V8.98015C5.36069 8.71224 5.57912 8.49435 5.84744 8.49435H7.80614L7.80695 6.4763H5.84732C5.57901 6.4763 5.36069 6.2584 5.36069 5.99049V4.67832C5.36069 4.33476 5.39566 3.94406 5.65549 3.65041C5.96944 3.29541 6.46422 3.25444 6.80913 3.25444L7.89295 3.25398V1.40164L6.21001 1.3989C4.38936 1.3989 3.25796 2.56207 3.25796 4.43433V5.99049C3.25796 6.25829 3.03964 6.4763 2.77132 6.4763H1.12474V8.49435H2.77132C3.03964 8.49435 3.25796 8.71224 3.25796 8.98015V14.6402ZM8.04453 1.40187H8.04465H8.04453Z" fill="#428440"/>
</svg>
