<svg width="25" height="24" viewBox="0 0 25 24" fill="none" xmlns="http://www.w3.org/2000/svg">
<path d="M12.7362 24C12.6567 24 12.5773 24 12.4973 23.9996C10.616 24.0042 8.87781 23.9564 7.18738 23.8535C5.63757 23.7592 4.2229 23.2236 3.09607 22.3048C2.00879 21.4182 1.2663 20.2194 0.889282 18.7421C0.561157 17.4559 0.543762 16.1934 0.5271 14.9723C0.515015 14.0961 0.502563 13.0579 0.5 12.0021C0.502563 10.942 0.515015 9.90375 0.5271 9.02759C0.543762 7.80664 0.561157 6.54413 0.889282 5.25781C1.2663 3.78052 2.00879 2.58172 3.09607 1.69512C4.2229 0.776301 5.63757 0.240717 7.18756 0.146417C8.87799 0.0436949 10.6166 -0.00427876 12.5018 0.000298881C14.3836 -0.00372944 16.1213 0.0436949 17.8117 0.146417C19.3615 0.240717 20.7762 0.776301 21.903 1.69512C22.9905 2.58172 23.7328 3.78052 24.1098 5.25781C24.4379 6.54395 24.4553 7.80664 24.472 9.02759C24.4841 9.90375 24.4967 10.942 24.4991 11.9977V12.0021C24.4967 13.0579 24.4841 14.0961 24.472 14.9723C24.4553 16.1933 24.4381 17.4558 24.1098 18.7421C23.7328 20.2194 22.9905 21.4182 21.903 22.3048C20.7762 23.2236 19.3615 23.7592 17.8117 23.8535C16.1929 23.952 14.5299 24 12.7362 24ZM12.4973 22.1246C14.3479 22.129 16.0471 22.0823 17.6978 21.982C18.8697 21.9107 19.8857 21.5304 20.7181 20.8516C21.4875 20.2241 22.0175 19.3584 22.293 18.2785C22.5662 17.2078 22.582 16.0583 22.5972 14.9467C22.6091 14.0764 22.6215 13.0455 22.6241 11.9999C22.6215 10.9542 22.6091 9.92353 22.5972 9.05323C22.582 7.94159 22.5662 6.79206 22.293 5.72125C22.0175 4.6413 21.4875 3.77557 20.7181 3.14807C19.8857 2.46948 18.8697 2.08917 17.6978 2.01794C16.0471 1.91742 14.3479 1.87109 12.5016 1.87512C10.6514 1.87072 8.95197 1.91742 7.30127 2.01794C6.12939 2.08917 5.11334 2.46948 4.28094 3.14807C3.51154 3.77557 2.98163 4.6413 2.70605 5.72125C2.43286 6.79206 2.41711 7.94141 2.40192 9.05323C2.39001 9.92426 2.37756 10.9557 2.375 12.0021C2.37756 13.044 2.39001 14.0756 2.40192 14.9467C2.41711 16.0583 2.43286 17.2078 2.70605 18.2785C2.98163 19.3584 3.51154 20.2241 4.28094 20.8516C5.11334 21.5302 6.12939 21.9105 7.30127 21.9818C8.95197 22.0823 10.6517 22.1292 12.4973 22.1246ZM12.4526 17.8593C9.22186 17.8593 6.5932 15.2308 6.5932 11.9999C6.5932 8.76905 9.22186 6.14056 12.4526 6.14056C15.6835 6.14056 18.312 8.76905 18.312 11.9999C18.312 15.2308 15.6835 17.8593 12.4526 17.8593ZM12.4526 8.01557C10.2557 8.01557 8.4682 9.80305 8.4682 11.9999C8.4682 14.1968 10.2557 15.9843 12.4526 15.9843C14.6497 15.9843 16.437 14.1968 16.437 11.9999C16.437 9.80305 14.6497 8.01557 12.4526 8.01557ZM18.9682 4.26556C18.1917 4.26556 17.562 4.89508 17.562 5.67181C17.562 6.44855 18.1917 7.07807 18.9682 7.07807C19.7449 7.07807 20.3745 6.44855 20.3745 5.67181C20.3745 4.89508 19.7449 4.26556 18.9682 4.26556Z" fill="#FEFCF0"/>
</svg>
