<svg width="36" height="36" viewBox="0 0 36 36" fill="none" xmlns="http://www.w3.org/2000/svg">
<circle cx="18" cy="18" r="17" stroke="#235621" stroke-width="2"/>
<g clip-path="url(#clip0_514_14141)">
<path d="M14.4529 18.489H16.0971V25.2581C16.0971 25.3917 16.2054 25.5 16.3391 25.5H19.1269C19.2606 25.5 19.3689 25.3917 19.3689 25.2581V18.5209H21.2591C21.382 18.5209 21.4854 18.4287 21.4994 18.3066L21.7865 15.8145C21.7944 15.746 21.7726 15.6773 21.7268 15.6259C21.6808 15.5744 21.6151 15.5449 21.5462 15.5449H19.369V13.9828C19.369 13.5119 19.6225 13.2731 20.1226 13.2731C20.1939 13.2731 21.5462 13.2731 21.5462 13.2731C21.6798 13.2731 21.7881 13.1648 21.7881 13.0312V10.7437C21.7881 10.6101 21.6798 10.5018 21.5462 10.5018H19.5843C19.5705 10.5011 19.5398 10.5 19.4945 10.5C19.1541 10.5 17.9709 10.5668 17.0362 11.4267C16.0006 12.3795 16.1446 13.5204 16.179 13.7182V15.5449H14.4529C14.3192 15.5449 14.2109 15.6532 14.2109 15.7868V18.247C14.2109 18.3807 14.3192 18.489 14.4529 18.489Z" fill="#235621"/>
</g>
<defs>
<clipPath id="clip0_514_14141">
<rect width="15" height="15" fill="white" transform="translate(10.5 10.5)"/>
</clipPath>
</defs>
</svg>
