<svg width="36" height="36" viewBox="0 0 36 36" fill="none" xmlns="http://www.w3.org/2000/svg">
<circle cx="18" cy="18" r="17" stroke="#235621" stroke-width="2"/>
<g clip-path="url(#clip0_514_14134)">
<path d="M10.7649 17.7322L14.2212 19.0222L15.559 23.3245C15.6446 23.6001 15.9816 23.7019 16.2052 23.5191L18.1318 21.9485C18.3338 21.7839 18.6214 21.7757 18.8325 21.9289L22.3074 24.4518C22.5466 24.6257 22.8856 24.4946 22.9456 24.2055L25.4911 11.9609C25.5566 11.6451 25.2463 11.3817 24.9456 11.498L10.7609 16.97C10.4108 17.105 10.4139 17.6006 10.7649 17.7322ZM15.3434 18.3355L22.0983 14.1751C22.2197 14.1006 22.3446 14.2647 22.2404 14.3614L16.6656 19.5434C16.4697 19.7258 16.3433 19.9699 16.3075 20.2349L16.1176 21.6422C16.0924 21.8301 15.8285 21.8487 15.7766 21.6669L15.0463 19.1006C14.9626 18.8079 15.0845 18.4953 15.3434 18.3355Z" fill="#235621"/>
</g>
<defs>
<clipPath id="clip0_514_14134">
<rect width="15" height="15" fill="white" transform="translate(10.5 10.5)"/>
</clipPath>
</defs>
</svg>
