<svg width="36" height="36" viewBox="0 0 36 36" fill="none" xmlns="http://www.w3.org/2000/svg">
<circle cx="18" cy="18" r="17" stroke="#235621" stroke-width="2"/>
<g clip-path="url(#clip0_514_14148)">
<path d="M23.3321 16.7946C23.3501 14.6798 21.5489 12.741 19.3169 12.4729C19.2726 12.4677 19.2242 12.4597 19.173 12.4512C19.0625 12.4329 18.9482 12.4141 18.8329 12.4141C18.3755 12.4141 18.2532 12.7354 18.221 12.927C18.1897 13.1134 18.2196 13.2699 18.3096 13.3923C18.4611 13.5983 18.7277 13.6349 18.9418 13.6642C19.0045 13.6729 19.0637 13.6809 19.1133 13.692C21.1186 14.1401 21.7939 14.8446 22.1239 16.8329C22.1319 16.8815 22.1356 16.9414 22.1394 17.0049C22.1538 17.2425 22.1838 17.737 22.7154 17.737H22.7155C22.7597 17.737 22.8073 17.7332 22.8568 17.7256C23.3519 17.6504 23.3363 17.1984 23.3289 16.9812C23.3268 16.9201 23.3248 16.8622 23.33 16.8237C23.3314 16.814 23.3321 16.8043 23.3321 16.7946Z" fill="#235621"/>
<path d="M18.7031 11.6966C18.7625 11.7009 18.8187 11.705 18.8655 11.7122C22.1585 12.2186 23.6729 13.7788 24.0926 17.0975C24.0997 17.1539 24.1008 17.2227 24.102 17.2956C24.1062 17.5549 24.1148 18.0943 24.694 18.1055L24.712 18.1057C24.8937 18.1057 25.0382 18.0509 25.1416 17.9427C25.3219 17.7541 25.3093 17.4739 25.2992 17.2487C25.2967 17.1934 25.2943 17.1414 25.2949 17.0959C25.3368 13.7017 22.3988 10.6238 19.0076 10.5094C18.9935 10.5089 18.9801 10.5096 18.9666 10.5116C18.9599 10.5125 18.9475 10.5137 18.9264 10.5137C18.8926 10.5137 18.851 10.5108 18.8069 10.5078C18.7535 10.5042 18.6931 10.5 18.6318 10.5C18.0917 10.5 17.989 10.8839 17.9759 11.1127C17.9456 11.6415 18.4572 11.6787 18.7031 11.6966Z" fill="#235621"/>
<path d="M23.9337 21.3868C23.8636 21.3334 23.7912 21.278 23.7235 21.2234C23.3639 20.9341 22.9814 20.6674 22.6115 20.4095C22.5347 20.356 22.458 20.3025 22.3815 20.2488C21.9076 19.916 21.4816 19.7542 21.0791 19.7542C20.537 19.7542 20.0644 20.0537 19.6743 20.6444C19.5015 20.9062 19.2918 21.0335 19.0334 21.0335C18.8806 21.0335 18.707 20.9899 18.5174 20.9039C16.988 20.2103 15.8958 19.1469 15.2712 17.7432C14.9693 17.0647 15.0672 16.6213 15.5985 16.2603C15.9003 16.0556 16.4619 15.6743 16.4221 14.9442C16.3771 14.1152 14.5478 11.6207 13.7771 11.3374C13.4508 11.2174 13.1079 11.2162 12.7562 11.3346C11.8702 11.6324 11.2343 12.1555 10.9173 12.8472C10.6109 13.5155 10.6247 14.3003 10.9573 15.1166C11.9187 17.4768 13.2704 19.5346 14.9749 21.2327C16.6434 22.895 18.694 24.2567 21.0699 25.2797C21.2841 25.3718 21.5087 25.4221 21.6727 25.4588C21.7286 25.4714 21.7769 25.4821 21.812 25.4917C21.8314 25.497 21.8513 25.4998 21.8713 25.5L21.8901 25.5001C21.8901 25.5001 21.8901 25.5001 21.8902 25.5001C23.0076 25.5001 24.3494 24.479 24.7614 23.3148C25.1225 22.2955 24.4633 21.7916 23.9337 21.3868Z" fill="#235621"/>
<path d="M19.1968 14.3927C19.0055 14.3976 18.6073 14.4075 18.4676 14.813C18.4023 15.0025 18.4101 15.167 18.4909 15.302C18.6095 15.5001 18.8368 15.5608 19.0434 15.5941C19.793 15.7144 20.178 16.1289 20.255 16.8984C20.2908 17.2573 20.5324 17.5079 20.8427 17.5079H20.8427C20.8656 17.5079 20.889 17.5065 20.9124 17.5037C21.2855 17.4593 21.4664 17.1851 21.4501 16.6889C21.456 16.171 21.185 15.5831 20.724 15.1148C20.2615 14.645 19.704 14.3805 19.1968 14.3927Z" fill="#235621"/>
</g>
<defs>
<clipPath id="clip0_514_14148">
<rect width="15" height="15" fill="white" transform="translate(10.5 10.5)"/>
</clipPath>
</defs>
</svg>
